<svg width="32" height="32" viewBox="0 0 32 32" fill="none" xmlns="http://www.w3.org/2000/svg">
<path d="M16 0C7.15207 0 0 7.15207 0 16C0 24.8479 7.15207 32 16 32C24.8479 32 32 24.8479 32 16C32 7.15207 24.8479 0 16 0ZM13.788 22.7834L12.6083 26.2488C8.18433 24.7742 5.23502 20.5714 5.23502 15.8525C5.23502 11.1336 8.18433 7.00461 12.682 5.45622L13.8617 8.92166C10.9124 9.88018 8.99539 12.682 8.99539 15.7788C8.84793 19.023 10.8387 21.8249 13.788 22.7834ZM19.2442 26.3226L18.1382 22.7834C21.1613 21.8249 23.1521 19.023 23.1521 15.8525C23.1521 12.682 21.1613 9.95392 18.212 8.99539L19.3917 5.45622C23.8894 6.93088 26.9124 11.1336 26.9124 15.8525C26.9124 20.7189 23.8157 24.9217 19.2442 26.3226Z" fill="#00BEF0"></path>
</svg>