<svg width="32" height="32" viewBox="0 0 32 32" fill="none" xmlns="http://www.w3.org/2000/svg">
<path d="M19.1883 0.34082V8.63736H15.9721C11.9085 8.63736 8.63525 11.9105 8.63525 15.9739C8.63525 20.0361 11.9085 23.3092 15.9708 23.3092H19.1883V31.6057C26.5238 30.1947 31.9999 23.7615 31.9999 15.9726C31.9999 8.24154 26.5264 1.8084 19.1883 0.34082Z" fill="#003791"></path>
<path d="M15.9721 25.9035C10.4973 25.9035 6.03716 21.4455 6.03716 15.9724C6.03716 10.4992 10.496 6.03994 15.9695 6.03994H16.5915V0H15.9708C7.1684 0 0 7.16824 0 15.9711C0 24.8318 7.1684 32 15.9721 32H16.5928V25.9061H15.9721V25.9035Z" fill="#FF4B5F"></path>
</svg>